<svg xmlns="http://www.w3.org/2000/svg" viewBox="0.00 0.00 87.00 106.00"><path d="M63.16 99.27 C48.51 91.51 39.82 79.37 38.90 66.02 L38.90 52.43 L0.00 52.43 L0.23 49.27 C0.91 40.78 5.49 33.25 12.59 29.13 C14.19 28.16 15.33 26.46 15.79 24.51 C17.16 18.45 20.82 13.35 26.09 10.92 C28.38 9.95 30.89 9.22 33.18 9.22 C33.64 9.22 34.32 9.22 34.78 9.22 C35.01 9.22 35.24 9.22 35.47 9.22 C37.07 9.22 38.67 8.50 39.82 7.28 C43.94 2.67 49.66 0.00 55.84 0.00 C64.07 0.00 71.62 4.85 75.29 12.86 C76.20 14.56 77.57 15.78 79.63 16.26 C82.15 16.75 84.44 17.96 86.73 19.42 C96.57 25.97 100.00 39.81 94.51 50.73 L93.59 52.43 L89.93 52.43 L89.93 65.78 C89.24 79.13 80.32 91.26 65.67 99.27 L64.53 100.00 L63.16 99.27 L63.16 99.27" fill="#FFFFFF" stroke="none" stroke-width="1.00" fill-rule="evenodd"/><path d="M55.71 2.37 C63.31 2.37 70.25 6.87 73.83 14.22 C74.72 16.35 76.51 17.77 78.75 18.25 C80.98 18.72 83.22 19.67 85.23 21.09 C94.41 27.25 97.54 39.81 92.39 50.00 L91.95 50.95 L87.92 50.95 L87.92 65.17 C87.25 77.73 78.97 89.34 64.88 96.68 L64.21 97.16 L63.53 96.68 C49.67 89.34 41.16 77.73 40.49 65.17 L40.49 50.95 L2.46 50.95 L2.68 49.05 C3.13 41.00 7.61 34.12 14.32 30.33 C16.33 29.38 17.67 27.25 18.12 25.12 C19.24 19.67 22.60 15.17 27.52 12.80 C29.31 11.85 31.32 11.37 33.56 11.37 C34.00 11.37 34.45 11.37 35.12 11.37 C35.35 11.37 35.57 11.37 35.79 11.37 C37.81 11.37 39.60 10.66 40.72 9.00 C44.74 4.74 50.11 2.37 55.71 2.37 L55.71 2.37 M55.71 0.00 C49.44 0.00 43.40 2.84 39.15 7.58 C38.26 8.53 37.14 9.00 35.79 9.00 C35.57 9.00 35.57 9.00 35.35 9.00 C34.90 9.00 34.23 9.00 33.56 9.00 C31.10 9.00 28.41 9.48 26.17 10.66 C20.81 13.27 16.78 18.48 15.66 24.64 C15.44 26.30 14.32 27.49 12.98 28.44 C5.59 32.46 0.89 40.28 0.22 49.05 L0.00 50.95 L0.00 53.32 L2.46 53.32 L38.26 53.32 L38.26 65.17 L38.26 65.40 C38.93 78.91 47.87 91.23 62.42 99.05 L63.09 99.53 L64.21 100.00 L65.32 99.53 L66.00 99.05 C80.54 91.00 89.49 78.91 90.16 65.40 L90.16 53.55 L91.95 53.55 L93.29 53.55 L93.96 52.13 L94.41 51.18 C100.00 40.05 96.64 26.07 86.35 19.19 C84.12 17.77 81.66 16.59 79.19 16.11 C77.63 15.64 76.51 14.69 75.84 13.27 C71.81 4.98 64.21 0.00 55.71 0.00 L55.71 0.00" fill="#FFFFFF" stroke="none" stroke-width="1.00" fill-rule="evenodd"/><path d="M88.09 39.54 C85.98 36.61 83.63 34.66 81.28 33.68 C78.93 32.71 77.06 29.78 76.12 25.39 C72.60 10.27 65.32 1.00 57.10 1.00 C51.23 1.00 45.60 5.88 41.61 15.15 C40.20 18.56 37.85 20.02 35.51 19.54 C32.69 19.05 29.64 20.02 27.06 22.46 C22.13 27.34 18.37 36.61 17.43 47.83 C16.96 52.71 15.55 56.61 13.44 58.56 C6.40 66.37 1.94 80.51 1.24 97.10 L1.00 101.00 L38.56 101.00 L38.56 93.68 L18.14 93.68 L18.14 76.61 L39.50 76.61 L39.50 77.59 L48.65 69.29 L30.34 69.29 L30.34 51.24 L51.70 51.24 L51.70 66.37 L55.23 63.44 L55.23 51.24 L75.65 51.24 L75.65 61.98 L79.17 64.90 L79.17 51.24 L89.97 51.24 C92.31 56.12 93.96 62.46 94.66 69.29 L84.10 69.29 L92.31 76.61 L95.37 76.61 C95.37 81.49 95.13 86.37 94.19 91.24 L94.19 101.00 L95.83 101.00 L96.30 99.05 C101.00 78.07 97.71 52.22 88.09 39.54 L88.09 39.54 M14.62 93.68 L4.99 93.68 C5.46 87.34 6.63 81.49 8.51 76.61 L14.62 76.61 L14.62 93.68 L14.62 93.68 M26.82 69.29 L12.03 69.29 C12.97 67.83 13.91 66.37 15.08 64.90 C17.67 61.98 19.78 57.10 20.48 51.24 L26.82 51.24 L26.82 69.29 L26.82 69.29 M39.26 44.41 L21.42 44.41 C22.83 37.59 25.18 32.22 28.46 29.29 C30.58 27.34 32.92 26.37 35.04 26.85 C36.45 27.34 37.85 26.85 39.03 25.88 L39.26 44.41 L39.26 44.41 M54.99 8.32 C55.70 8.32 56.40 7.83 57.10 7.83 C61.80 7.83 66.26 11.73 69.54 18.56 L54.99 18.56 L54.99 8.32 L54.99 8.32 M51.47 10.27 L51.47 19.05 L44.66 19.05 C46.54 14.66 48.89 11.73 51.47 10.27 L51.47 10.27 M63.68 44.41 L42.78 44.41 L42.78 26.37 L63.68 26.37 L63.68 44.41 L63.68 44.41 M66.96 44.41 L66.96 26.37 L72.13 26.37 C72.36 27.34 72.60 27.83 72.83 28.80 C74.24 35.15 77.06 39.54 80.34 41.00 C81.99 41.49 83.39 42.95 84.80 44.41 L66.96 44.41 L66.96 44.41" fill="#2d5967" stroke="none" stroke-width="1.00" fill-rule="evenodd"/><path d="M34.00 40.43 L34.00 75.79 C35.42 94.71 52.87 112.21 82.58 123.29 L84.00 124.00 L85.42 123.29 C114.66 112.21 132.58 94.71 134.00 75.79 L134.00 40.07 L84.00 24.00 L34.00 40.43 L34.00 40.43 M126.92 75.79 C125.51 91.86 111.36 106.86 86.83 116.86 L86.83 64.71 L79.75 64.71 L79.75 116.14 C56.17 105.79 42.02 91.14 40.60 75.43 L40.60 43.64 L79.75 30.79 L79.75 57.93 L86.83 57.93 L86.83 30.43 L126.92 43.29 L126.92 75.79 L126.92 75.79" fill="#2d5967" stroke="none" stroke-width="1.00" fill-rule="evenodd"/></svg>